<svg id="Layer_1" data-name="Layer 1" xmlns="http://www.w3.org/2000/svg" viewBox="0 0 276.37 92.32"><defs><style>.cls-1{fill:#fff;}.cls-2{fill:#e82c9b;}</style></defs><path class="cls-1" d="M21.11,56q-1.38,0-3.09.15c-1.15.1-2.24.15-3.29.15a13.87,13.87,0,0,1-2.8-.25,1.84,1.84,0,0,1-1.52-1c-.39-.33-.39-.7,0-1.13s.75-.8,1.08-1.13c1.24-.13,2.32-.23,3.24-.29s1.77-.15,2.55-.25l2.26-.29c.72-.1,1.47-.21,2.26-.34q1.47-5.49,2.75-10.5T27,31.16q1.17-4.9,2.31-9.91c.75-3.34,1.55-6.83,2.4-10.5q.88-1.27,1.47-1.32a14.21,14.21,0,0,1,2,.05c.39,2.09.69,3.86.88,5.3s.38,2.89.54,4.37.36,3.11.59,4.91.54,4.07.93,6.82.62,5.58,1.08,8.29.85,5.51,1.18,8.39c1.7-.26,3.34-.54,4.91-.83l4.17-.79,2.94-.54c.75-.13,1.13-.16,1.13-.1.2.59-.12,1.16-.93,1.72a18.9,18.9,0,0,1-3.19,1.67c-1.31.56-2.71,1.08-4.22,1.57l-4,1.32c.13,1.24.36,2.8.69,4.66s.67,3.84,1,5.94.74,4.2,1.13,6.33.74,4.06,1,5.79.51,3.17.64,4.32.13,1.78,0,1.91a3.44,3.44,0,0,1-2.4-.34,7.2,7.2,0,0,0-1.82-.93q-.78-6.48-2-13.2c-.78-4.48-1.41-8.94-1.86-13.39q-2.27.49-5.74,1.32c-2.32.56-4.73,1-7.21,1.42-.39,1.44-.75,3-1.08,4.81s-.65,3.45-1,5-.61,3-.83,4.32a10.88,10.88,0,0,1-.64,2.5,2.91,2.91,0,0,1-1.72.64,2.27,2.27,0,0,1-2-.64,18.74,18.74,0,0,1,.44-2.7c.29-1.41.64-3,1-4.66s.8-3.35,1.23-5S20.84,56.89,21.11,56Zm4.71-4.81,3.24-.64c1.18-.23,2.27-.47,3.29-.74s1.9-.47,2.65-.64a9.46,9.46,0,0,0,1.32-.34c-.13-1.44-.25-2.63-.34-3.58s-.2-1.95-.29-3-.21-2.27-.34-3.68-.33-3.32-.59-5.74Q34,26.64,33.63,23.6c-.23-2-.44-2.68-.64-2q-1.38,5.3-2.4,9.17T28.73,38c-.56,2.19-1.06,4.33-1.52,6.43S26.27,48.75,25.82,51.17Z" transform="translate(-10.12 -9.41)"/><path class="cls-1" d="M64.38,43.71a17.61,17.61,0,0,1,4.07,1.08A9.38,9.38,0,0,1,71,46.31,7.88,7.88,0,0,1,72.47,48l1,1.67c-.06.26-.38.23-.93-.1s-1.1-.65-1.62-1A11.62,11.62,0,0,0,65.75,47a16.81,16.81,0,0,0-5.64.34,8.71,8.71,0,0,0-4.17,2.21,3.43,3.43,0,0,0-.79,3.83A8.76,8.76,0,0,0,58,57.25a27.32,27.32,0,0,0,4.46,3q2.45,1.32,4.91,2.4a24.73,24.73,0,0,1,4,2.16L74.68,63c.92-.49,1.73-.95,2.45-1.37s1.46-.82,2.21-1.18l2.6-1.23a.85.85,0,0,1,.34-.1c.1,0,.1.08,0,.25a4.26,4.26,0,0,1-.79.79c-.43.36-1.1.87-2,1.52-.46.33-1.31.88-2.55,1.67l-4,2.55a9.64,9.64,0,0,1,1.87,2.26,8.07,8.07,0,0,1,.83,2.31,3.71,3.71,0,0,1-.44,2.5,17.27,17.27,0,0,1-8.92,7.36,5.28,5.28,0,0,1-3,.1,4.76,4.76,0,0,1-2.65-1.57A3.46,3.46,0,0,1,60,75.65a9.7,9.7,0,0,1,1.81-3.14,22.38,22.38,0,0,1,2.94-2.89c1.11-.92,2.09-1.73,2.94-2.45a14.19,14.19,0,0,0-3.43-2.4c-1.7-.95-3.45-2-5.25-3.14A35.15,35.15,0,0,1,54.17,58,6.43,6.43,0,0,1,51.81,54a6.82,6.82,0,0,1,.54-4.17,10.11,10.11,0,0,1,2.75-3.53,12,12,0,0,1,4.22-2.26A11.28,11.28,0,0,1,64.38,43.71Zm-.89,33.66a3.15,3.15,0,0,0,2.45,0A9.73,9.73,0,0,0,68.54,76a12.84,12.84,0,0,0,2.16-2.06,6.7,6.7,0,0,0,1.23-2,1.67,1.67,0,0,0-.54-1.72,9.16,9.16,0,0,0-1.72-1.52,29.87,29.87,0,0,0-2.45,2,20.66,20.66,0,0,0-2.4,2.5A10.31,10.31,0,0,0,63.3,75.6C63,76.39,63,77,63.49,77.37Z" transform="translate(-10.12 -9.41)"/><path class="cls-1" d="M96.07,45.87c.06.39-.25.78-.93,1.18s-1.55,1-2.6,1.72a28.11,28.11,0,0,0-3.43,3,17.88,17.88,0,0,0-3.34,4.91,37.77,37.77,0,0,0-2.26,5.79,10.51,10.51,0,0,0,.29,5.79,3.93,3.93,0,0,0,.83,1.23,2.57,2.57,0,0,0,1.62.64A18.91,18.91,0,0,0,90.08,69a17.79,17.79,0,0,0,3.14-1.67,34.22,34.22,0,0,0,2.84-2.11c.92-.75,1.86-1.52,2.85-2.31,1.44-1.37,2.63-2.57,3.58-3.58s1.72-1.86,2.31-2.55a10.74,10.74,0,0,1,1.52-1.52,1.42,1.42,0,0,1,1.32-.29,38.67,38.67,0,0,1-2.21,3.73,45.09,45.09,0,0,1-4.71,6,44,44,0,0,1-6.72,6,18.65,18.65,0,0,1-8.24,3.48,15.08,15.08,0,0,1-2.89-.39c-.75-.2-1.46-1-2.11-2.35a11.26,11.26,0,0,1-.88-5.94,29.19,29.19,0,0,1,1.47-6.92,34.12,34.12,0,0,1,2.94-6.38,17,17,0,0,1,3.43-4.32,11.57,11.57,0,0,1,4.37-2.06A10.25,10.25,0,0,1,96.07,45.87Z" transform="translate(-10.12 -9.41)"/><path class="cls-1" d="M112,46.85l1.67-.54a3.78,3.78,0,0,1,2.26-.15,5.57,5.57,0,0,1,4.37,1.47q1.51,1.57.25,6.08a24.61,24.61,0,0,1-5,8.34,49.38,49.38,0,0,1-7.31,6.38q1,2.55,2.94,2.85a7.47,7.47,0,0,0,4.12-.64,20.26,20.26,0,0,0,4.22-2.5c1.37-1,2.49-2,3.34-2.75,1.37-1.18,2.47-2.17,3.29-3a33.84,33.84,0,0,0,2.6-3c.2-.13.31-.11.34.05a2.28,2.28,0,0,1-.05.74c-.07.33-.16.79-.29,1.37s-.39.87-.59,1.23a8.39,8.39,0,0,1-.83,1.18c-.36.43-.83.93-1.42,1.52s-1.31,1.37-2.16,2.35l-2.85,2.7A20,20,0,0,1,118,72.86a10,10,0,0,1-3.34,1.37,11.2,11.2,0,0,1-4.17,0,14.27,14.27,0,0,1-3.14-1.47,7.3,7.3,0,0,1-1.81-1.62,6.69,6.69,0,0,1-.93-1.52,5.55,5.55,0,0,1-.39-1.18,20,20,0,0,1-.39-5.3,30,30,0,0,1,2-8.63,24.92,24.92,0,0,1,2.75-4.66A10.67,10.67,0,0,1,112,46.85Zm-4.31,17.37a28.28,28.28,0,0,0,3-1.91,22.66,22.66,0,0,0,3.24-2.85,19.19,19.19,0,0,0,2.65-3.58,9.07,9.07,0,0,0,1.23-4.12,2.88,2.88,0,0,0-.1-2.06c-.13-.2-.26-.29-.39-.29a3.05,3.05,0,0,0-3.34.49,12.2,12.2,0,0,0-3,3.63,26.2,26.2,0,0,0-2.31,5.25A17.81,17.81,0,0,0,107.65,64.22Z" transform="translate(-10.12 -9.41)"/><path class="cls-1" d="M132.27,44.69c0,1.83,0,3.66-.05,5.5s-.07,3.6-.1,5.3-.07,3.3-.1,4.81-.08,2.85-.15,4a10.2,10.2,0,0,1,.44-1.91,35.78,35.78,0,0,1,1.23-3.48c.52-1.31,1.09-2.7,1.72-4.17a27,27,0,0,1,2-3.92,12.11,12.11,0,0,1,2.21-2.7,2,2,0,0,1,2.11-.59,5.86,5.86,0,0,1,3,2.85,16.21,16.21,0,0,1,1.28,4.27q.39,2.4.79,5.35a23.84,23.84,0,0,0,1.77,6.18,4.25,4.25,0,0,0,1.72,2.16,8.5,8.5,0,0,0,2.16,1,8.33,8.33,0,0,0,1.67.34c.42,0,.57.15.44.34-1.64,1.24-3,1.67-4.22,1.28a5.65,5.65,0,0,1-3-2.6,18.86,18.86,0,0,1-2-4.81c-.52-1.86-1-3.66-1.42-5.4s-.8-3.2-1.13-4.42-.69-1.82-1.08-1.82c-.59.07-1.23.62-1.91,1.67a29.87,29.87,0,0,0-2.11,3.92q-1.08,2.35-2.06,5.15c-.65,1.86-1.26,3.62-1.82,5.25s-1,3-1.32,4.22-.52,1.9-.59,2.16a9.06,9.06,0,0,0-1.82.1c-.23.06-.61-.26-1.13-1q.5-8.64.34-16.34T128.75,44c0-.59.15-.88.44-.88a1.74,1.74,0,0,1,1,.39l1.13.79A1.91,1.91,0,0,0,132.27,44.69Z" transform="translate(-10.12 -9.41)"/><path class="cls-2" d="M188.2,23c-.2,1.18-.43,2.42-.69,3.73s-.54,2.55-.83,3.73-.54,2.19-.74,3-.33,1.37-.39,1.57c-.39,1.11-.92,2.55-1.57,4.32s-1.42,3.62-2.31,5.54-1.88,3.86-3,5.79a33.45,33.45,0,0,1-3.43,5c0,1,.11,2.63.34,5s.51,4.82.83,7.51.64,5.32.93,7.9.47,4.59.54,6c-.33.33-.62.26-.88-.2s-.66-1.24-1.18-2.35q-.59-2.55-.93-4.71c-.23-1.44-.44-2.89-.64-4.37s-.41-3-.64-4.66-.57-3.5-1-5.59q-1.86,2.35-4.46,5.35a44.82,44.82,0,0,1-5.4,5.3,18,18,0,0,1-5.49,3.24,4.38,4.38,0,0,1-4.66-.83,5.28,5.28,0,0,1-1-3.68,12.17,12.17,0,0,1,1.18-4.32,25,25,0,0,1,2.65-4.37c1.08-1.44,2.17-2.78,3.29-4s2.16-2.32,3.14-3.24,1.7-1.57,2.16-2c.92-.59,1.68-1.06,2.31-1.42s1.18-.65,1.67-.88a6.42,6.42,0,0,1,1.52-.49,7.65,7.65,0,0,1,2,0c-.13-1.5-.21-3.3-.25-5.4s0-4.2,0-6.33.1-4.1.2-5.94a33.07,33.07,0,0,1,.44-4.22,21.7,21.7,0,0,1,.93-4.51,29.08,29.08,0,0,1,1.86-4.56,22.5,22.5,0,0,1,2.5-3.92,8.33,8.33,0,0,1,3-2.45,5.13,5.13,0,0,1,3.34-.34,6.43,6.43,0,0,1,3.38,2.45,6.31,6.31,0,0,1,1.37,4.17C188.2,19.43,188.2,21.18,188.2,23ZM161,58.33a23.58,23.58,0,0,0-3.88,5.05,42.71,42.71,0,0,0-2,4.27v.93a5,5,0,0,0,.15,1.23,2.15,2.15,0,0,0,.59,1,1.52,1.52,0,0,0,1.42.25,10.23,10.23,0,0,0,1.62-.79,11.76,11.76,0,0,0,1.18-.83l1.18-.93,1.62-1.28c.92-1,2-2.09,3.38-3.34A28,28,0,0,0,169.8,60a11.41,11.41,0,0,0,2-4.22,4.68,4.68,0,0,0-1.28-4.22,5.52,5.52,0,0,0-1.42.2,6.37,6.37,0,0,0-1.82.93,28.9,28.9,0,0,0-2.6,2.06C163.69,55.63,162.46,56.83,161,58.33Zm14.23-9.12A20.78,20.78,0,0,0,178.19,45q1.19-2.2,2.65-5.25A36.23,36.23,0,0,0,183.15,33a55.65,55.65,0,0,0,1.42-8.09,30.63,30.63,0,0,0,0-6.92c-.26-2-.92-3-2-3.14a2.87,2.87,0,0,0-2.55,1,14,14,0,0,0-2.16,3,23.75,23.75,0,0,0-1.67,3.88,26.47,26.47,0,0,0-1,3.63c-.26,1.31-.44,2.49-.54,3.53s-.16,2.14-.2,3.29-.08,2.39-.15,3.73-.2,3-.39,5a28.94,28.94,0,0,0,.15,2.94,20.1,20.1,0,0,0,.39,2.5A14.41,14.41,0,0,0,175,49C175.09,49.32,175.18,49.4,175.25,49.21Z" transform="translate(-10.12 -9.41)"/><path class="cls-2" d="M203.51,45.77c-.07.39-.21,1.21-.44,2.45s-.48,2.7-.74,4.37-.49,3.42-.69,5.25-.31,3.57-.34,5.2a19.72,19.72,0,0,0,.29,4.17c.23,1.15.6,1.85,1.13,2.11a4.16,4.16,0,0,0,4.61-.74A38.18,38.18,0,0,0,212.82,63c.2,0,.21.26.05.79a8.52,8.52,0,0,1-.79,1.72L211,67.41a7.43,7.43,0,0,1-.83,1.23,16.5,16.5,0,0,1-2.26,2.21,13.16,13.16,0,0,1-3.14,2,6.85,6.85,0,0,1-3.19.64,3.1,3.1,0,0,1-2.5-1.77,8.94,8.94,0,0,1-.59-2.89,28.86,28.86,0,0,1,0-3.48c.06-1.18.16-2.26.29-3.24s.23-1.7.3-2.16a52.42,52.42,0,0,1-4.71,7.26,29.72,29.72,0,0,1-5.2,5.4,9,9,0,0,1-4.71,2.11c-1.44.1-2.55-.74-3.34-2.5a12.07,12.07,0,0,1,0-5.74,22,22,0,0,1,2.06-5.74,61.8,61.8,0,0,1,4.32-6.48,29.08,29.08,0,0,1,4.81-5,17.1,17.1,0,0,1,5.35-3A12,12,0,0,1,203.51,45.77ZM185.06,70.7c.65.13,1.7-.36,3.14-1.47a26.58,26.58,0,0,0,4.51-4.66,37.67,37.67,0,0,0,4.27-7,27.48,27.48,0,0,0,2.5-8.39h-1.13a3.52,3.52,0,0,0-1.72.59,27.73,27.73,0,0,0-6.38,5.74,32.44,32.44,0,0,0-4.12,6.38,18.41,18.41,0,0,0-1.77,5.54C184.18,69.09,184.41,70.17,185.06,70.7Z" transform="translate(-10.12 -9.41)"/><path class="cls-2" d="M215.77,44.69c0,1.83,0,3.66-.05,5.5s-.07,3.6-.1,5.3-.07,3.3-.1,4.81-.08,2.85-.15,4a10.2,10.2,0,0,1,.44-1.91A35.78,35.78,0,0,1,217,58.93c.52-1.31,1.09-2.7,1.72-4.17a27,27,0,0,1,2-3.92,12.11,12.11,0,0,1,2.21-2.7,2,2,0,0,1,2.11-.59,5.86,5.86,0,0,1,3,2.85,16.21,16.21,0,0,1,1.28,4.27q.39,2.4.79,5.35A23.84,23.84,0,0,0,232,66.2a4.25,4.25,0,0,0,1.72,2.16,8.5,8.5,0,0,0,2.16,1,8.33,8.33,0,0,0,1.67.34c.42,0,.57.15.44.34-1.64,1.24-3,1.67-4.22,1.28a5.65,5.65,0,0,1-3-2.6,18.86,18.86,0,0,1-2-4.81c-.52-1.86-1-3.66-1.42-5.4s-.8-3.2-1.13-4.42-.69-1.82-1.08-1.82c-.59.07-1.23.62-1.91,1.67a29.87,29.87,0,0,0-2.11,3.92Q220,60.19,219,63c-.65,1.86-1.26,3.62-1.82,5.25s-1,3-1.32,4.22-.52,1.9-.59,2.16a9.06,9.06,0,0,0-1.82.1c-.23.06-.61-.26-1.13-1q.5-8.64.34-16.34T212.25,44c0-.59.15-.88.44-.88a1.74,1.74,0,0,1,1,.39l1.13.79A1.91,1.91,0,0,0,215.77,44.69Z" transform="translate(-10.12 -9.41)"/><path class="cls-2" d="M253.45,45.87c.06.39-.25.78-.93,1.18s-1.55,1-2.6,1.72a28.11,28.11,0,0,0-3.43,3,17.88,17.88,0,0,0-3.34,4.91,37.77,37.77,0,0,0-2.26,5.79,10.51,10.51,0,0,0,.29,5.79,3.93,3.93,0,0,0,.83,1.23,2.57,2.57,0,0,0,1.62.64A18.91,18.91,0,0,0,247.46,69a17.79,17.79,0,0,0,3.14-1.67,34.22,34.22,0,0,0,2.84-2.11c.92-.75,1.86-1.52,2.85-2.31,1.44-1.37,2.63-2.57,3.58-3.58s1.72-1.86,2.31-2.55a10.74,10.74,0,0,1,1.52-1.52A1.42,1.42,0,0,1,265,55a38.67,38.67,0,0,1-2.21,3.73,45.09,45.09,0,0,1-4.71,6,44,44,0,0,1-6.72,6,18.65,18.65,0,0,1-8.24,3.48,15.08,15.08,0,0,1-2.89-.39c-.75-.2-1.46-1-2.11-2.35a11.26,11.26,0,0,1-.88-5.94,29.19,29.19,0,0,1,1.47-6.92,34.12,34.12,0,0,1,2.94-6.38,17,17,0,0,1,3.43-4.32,11.57,11.57,0,0,1,4.37-2.06A10.25,10.25,0,0,1,253.45,45.87Z" transform="translate(-10.12 -9.41)"/><path class="cls-2" d="M269.34,46.85l1.67-.54a3.77,3.77,0,0,1,2.26-.15,5.57,5.57,0,0,1,4.37,1.47q1.51,1.57.25,6.08a24.61,24.61,0,0,1-5,8.34,49.38,49.38,0,0,1-7.31,6.38q1,2.55,2.94,2.85a7.47,7.47,0,0,0,4.12-.64,20.26,20.26,0,0,0,4.22-2.5c1.37-1,2.49-2,3.34-2.75,1.37-1.18,2.47-2.17,3.29-3a33.84,33.84,0,0,0,2.6-3c.2-.13.31-.11.34.05a2.28,2.28,0,0,1-.05.74c-.07.33-.16.79-.29,1.37s-.39.87-.59,1.23a8.39,8.39,0,0,1-.83,1.18c-.36.43-.83.93-1.42,1.52s-1.31,1.37-2.16,2.35l-2.85,2.7a20,20,0,0,1-2.89,2.31,10,10,0,0,1-3.34,1.37,11.2,11.2,0,0,1-4.17,0,14.27,14.27,0,0,1-3.14-1.47,7.3,7.3,0,0,1-1.81-1.62,6.69,6.69,0,0,1-.93-1.52,5.55,5.55,0,0,1-.39-1.18,20,20,0,0,1-.39-5.3,30,30,0,0,1,2-8.63,24.92,24.92,0,0,1,2.75-4.66A10.78,10.78,0,0,1,269.34,46.85ZM265,64.22a28.28,28.28,0,0,0,3-1.91,22.66,22.66,0,0,0,3.24-2.85,19.19,19.19,0,0,0,2.65-3.58,9.07,9.07,0,0,0,1.23-4.12,2.88,2.88,0,0,0-.1-2.06c-.13-.2-.26-.29-.39-.29a3.05,3.05,0,0,0-3.34.49,12.2,12.2,0,0,0-3,3.63A26.2,26.2,0,0,0,266,58.78,17.81,17.81,0,0,0,265,64.22Z" transform="translate(-10.12 -9.41)"/><path class="cls-1" d="M17.84,99.27a6.53,6.53,0,0,0,3.28.92c1.87,0,3-1,3-2.42s-.76-2.08-2.67-2.81c-2.31-.82-3.74-2-3.74-4,0-2.2,1.83-3.84,4.58-3.84a6.52,6.52,0,0,1,3.13.69l-.5,1.49a5.67,5.67,0,0,0-2.69-.67c-1.93,0-2.67,1.16-2.67,2.12,0,1.32.86,2,2.81,2.73,2.39.92,3.61,2.08,3.61,4.16s-1.62,4.07-5,4.07a7.35,7.35,0,0,1-3.61-.9Z" transform="translate(-10.12 -9.41)"/><path class="cls-1" d="M67.7,88.9H63.4V87.35H73.88V88.9H69.55v12.6H67.7V88.9Z" transform="translate(-10.12 -9.41)"/><path class="cls-1" d="M113.83,87.35v8.38c0,3.17,1.41,4.51,3.3,4.51,2.1,0,3.44-1.39,3.44-4.51V87.35h1.85V95.6c0,4.35-2.29,6.13-5.35,6.13-2.9,0-5.08-1.66-5.08-6V87.35Z" transform="translate(-10.12 -9.41)"/><path class="cls-1" d="M162.16,87.54a25.93,25.93,0,0,1,3.88-.29c2.62,0,4.49.61,5.73,1.76a6.5,6.5,0,0,1,2,5.08,7.45,7.45,0,0,1-2,5.5c-1.32,1.32-3.51,2-6.26,2a28.44,28.44,0,0,1-3.32-.17V87.54ZM164,100.05a11.9,11.9,0,0,0,1.85.11c3.9,0,6-2.18,6-6,0-3.34-1.87-5.46-5.73-5.46a10,10,0,0,0-2.14.19v11.16Z" transform="translate(-10.12 -9.41)"/><path class="cls-1" d="M214.53,87.35V101.5H212.7V87.35Z" transform="translate(-10.12 -9.41)"/><path class="cls-1" d="M266.38,94.28c0,4.87-3,7.45-6.57,7.45s-6.36-2.9-6.36-7.18c0-4.49,2.79-7.43,6.57-7.43S266.38,90.08,266.38,94.28Zm-11,.23c0,3,1.64,5.73,4.51,5.73s4.54-2.67,4.54-5.88c0-2.81-1.47-5.75-4.51-5.75S255.39,91.4,255.39,94.51Z" transform="translate(-10.12 -9.41)"/></svg>