<?xml version="1.0" encoding="utf-8"?>
<!-- Generator: Adobe Illustrator 24.2.3, SVG Export Plug-In . SVG Version: 6.00 Build 0)  -->
<svg version="1.1" id="Layer_1" xmlns="http://www.w3.org/2000/svg" xmlns:xlink="http://www.w3.org/1999/xlink" x="0px" y="0px"
	 viewBox="0 0 163.54 158.02" style="enable-background:new 0 0 163.54 158.02;" xml:space="preserve">
<style type="text/css">
	.st0{fill:#9CAA6D;}
	.st1{fill:#D9E18B;}
	.st2{fill:#D16C84;}
	.st3{fill:#8FA4A5;}
</style>
<circle class="st0" cx="69.68" cy="22.53" r="8.5"/>
<path class="st1" d="M31.82,91.65c5.35,0.15,24.04,0.1,41.56-4.83c8.72-2.37,16.99-6.12,22.39-10.58c5.86-4.74,6.47-8.89,5.38-10.05
	c-0.25-1.33-3.53-5.3-10.07-8.5c-6.33-3.3-14.82-6.3-23.22-8.79c-16.86-4.94-33.47-8.15-34.84-8.62
	c-3.44-0.1,67.36,6.36,73.12,22.34c0.59,1.19,2.11,4.4,0.72,8.29c-1.3,3.79-4.46,6.72-7.97,9.41c-7.35,5.26-17.65,8.65-27.71,10.31
	C50.94,94.18,31.76,91.67,31.82,91.65z"/>
<path class="st2" d="M20.57,44.69c3.55-0.17,15.76,0.07,27.73-0.75c12.03-0.68,23.37-3.53,26.42-4.47
	c2.97-0.53,14.48-2.95,24.85-8.09c10.47-4.85,19.43-11.67,20.24-12.21c0.69-0.73-6.97,7.29-16.98,14.35
	c-9.95,7.17-22.76,11.98-25.76,12.44c-2.89,0.96-17.39,2.9-30.75,1.66C32.94,46.74,20.59,44.62,20.57,44.69z"/>
<path class="st3" d="M145.55,73.61c-1.12-5.3-4.8-9.62-8.9-12.66c-8.32-6.15-18.25-9.66-28.11-12.74
	c-40-10.49-80.65-17.69-92.71-18.31c-0.02,0.12,10.58,1.31,26.5,4.72c15.79,3.73,37.36,8.61,58.91,14.74
	c10.65,3.32,21.5,7.2,30.24,13.08c9.29,5.52,12.76,15.96,6.04,22.07c-12.58,12.02-31.44,17.31-31.5,17.42
	c-4.59,1.67-17.78,5.75-34.57,9.96c-8.38,2.13-17.76,4.31-27.55,6.45c-4.89,1.07-9.89,2.14-14.92,3.22l-7.55,1.67l-3.78,0.9
	l-1.9,0.49l-0.29,0.08l-1.06,0.24c-0.72,0-1.3,0.81-1.3,1.81c0,0.8,0.38,1.48,0.91,1.71c0.01,0.01,0.02,0.03,0.03,0.04l0.11,0.05
	c0.59,0.24,1.19,0.46,1.79,0.69l0.06,0.06l0.03-0.03c18.92,7.28,38.05,7.9,51.49,9.48c14,1.24,22.41,2.49,20.74,2.23
	c-1.65-0.32-11.78-1.93-26.46-3.83c-7.33-1.01-15.78-2.23-24.7-4.17c-4.44-1.02-9.02-2.15-13.53-3.73c-1.81-0.66-3.63-1.32-5.4-2.09
	l-0.03,0l0.01-0.01c0,0,0.01,0,0.01,0.01l2.02-0.43c38.96-6.32,79.46-16.16,89.78-20.2c0.88-0.35,18.62-5.61,31.49-18.73
	C144.38,84.41,146.79,79.03,145.55,73.61z"/>
<text transform="matrix(1 0 0 1 -31.0248 -442.5046)" style="font-family:'MyriadPro-Regular'; font-size:12px;">Lorem ipsum</text>
</svg>
