<?xml version="1.0" encoding="utf-8"?>
<!-- Generator: Adobe Illustrator 24.2.1, SVG Export Plug-In . SVG Version: 6.00 Build 0)  -->
<svg version="1.1" id="Layer_1" xmlns="http://www.w3.org/2000/svg" xmlns:xlink="http://www.w3.org/1999/xlink" x="0px" y="0px"
	 viewBox="0 0 295 125" style="enable-background:new 0 0 295 125;" xml:space="preserve">
<style type="text/css">
	.st0{fill:#FFF;}
	.st1{fill:#FFF;}
</style>
<g>
	<path class="st0" d="M21.11,55.98c-0.92,0-1.95,0.05-3.09,0.15c-1.15,0.1-2.24,0.15-3.29,0.15c-1.05,0-1.98-0.08-2.8-0.25
		c-0.82-0.16-1.32-0.51-1.52-1.03c-0.39-0.33-0.39-0.7,0-1.13c0.39-0.42,0.75-0.8,1.08-1.13c1.24-0.13,2.32-0.23,3.24-0.29
		c0.92-0.06,1.77-0.15,2.55-0.25s1.54-0.2,2.26-0.29c0.72-0.1,1.47-0.21,2.26-0.34c0.98-3.66,1.9-7.16,2.75-10.5
		s1.67-6.64,2.45-9.91s1.55-6.57,2.31-9.91c0.75-3.34,1.55-6.83,2.4-10.5c0.59-0.85,1.08-1.29,1.47-1.32s1.05-0.02,1.96,0.05
		c0.39,2.09,0.69,3.86,0.88,5.3c0.2,1.44,0.38,2.89,0.54,4.37c0.16,1.47,0.36,3.11,0.59,4.91c0.23,1.8,0.54,4.07,0.93,6.82
		c0.26,2.81,0.62,5.58,1.08,8.29c0.46,2.71,0.85,5.51,1.18,8.39c1.7-0.26,3.34-0.54,4.91-0.83c1.57-0.29,2.96-0.56,4.17-0.79
		c1.21-0.23,2.19-0.41,2.94-0.54s1.13-0.16,1.13-0.1c0.2,0.59-0.12,1.16-0.93,1.72c-0.82,0.56-1.88,1.11-3.19,1.67
		c-1.31,0.56-2.71,1.08-4.22,1.57c-1.51,0.49-2.85,0.93-4.02,1.32c0.13,1.24,0.36,2.8,0.69,4.66c0.33,1.86,0.67,3.84,1.03,5.94
		c0.36,2.09,0.74,4.2,1.13,6.33c0.39,2.13,0.74,4.06,1.03,5.79s0.51,3.17,0.64,4.32c0.13,1.14,0.13,1.78,0,1.91
		c-1.11,0.13-1.91,0.02-2.4-0.34s-1.1-0.67-1.82-0.93c-0.52-4.32-1.18-8.72-1.96-13.2s-1.41-8.94-1.86-13.39
		c-1.51,0.33-3.42,0.77-5.74,1.32c-2.32,0.56-4.73,1.03-7.21,1.42c-0.39,1.44-0.75,3.04-1.08,4.81s-0.65,3.45-0.98,5.05
		c-0.33,1.6-0.61,3.04-0.83,4.32c-0.23,1.28-0.44,2.11-0.64,2.5c-0.33,0.33-0.9,0.54-1.72,0.64s-1.49-0.11-2.01-0.64
		c0-0.39,0.15-1.29,0.44-2.7s0.64-2.96,1.03-4.66c0.39-1.7,0.8-3.35,1.23-4.95C20.5,58.15,20.84,56.89,21.11,55.98z M25.82,51.17
		c0.98-0.2,2.06-0.41,3.24-0.64s2.27-0.47,3.29-0.74c1.01-0.26,1.9-0.47,2.65-0.64c0.75-0.16,1.19-0.28,1.32-0.34
		c-0.13-1.44-0.25-2.63-0.34-3.58c-0.1-0.95-0.2-1.95-0.29-2.99c-0.1-1.05-0.21-2.27-0.34-3.68s-0.33-3.32-0.59-5.74
		c-0.52-4.12-0.9-7.19-1.13-9.22s-0.44-2.68-0.64-1.96c-0.92,3.53-1.72,6.59-2.4,9.17c-0.69,2.58-1.31,4.97-1.86,7.16
		c-0.56,2.19-1.06,4.33-1.52,6.43C26.73,46.49,26.27,48.75,25.82,51.17z"/>
	<path class="st0" d="M64.38,43.71c1.63,0.26,2.99,0.62,4.07,1.08c1.08,0.46,1.93,0.97,2.55,1.52c0.62,0.56,1.11,1.13,1.47,1.72
		c0.36,0.59,0.7,1.14,1.03,1.67c-0.06,0.26-0.38,0.23-0.93-0.1c-0.56-0.33-1.1-0.65-1.62-0.98c-1.44-0.92-3.17-1.47-5.2-1.67
		s-3.91-0.08-5.64,0.34c-1.73,0.43-3.12,1.16-4.17,2.21c-1.05,1.05-1.31,2.32-0.79,3.83c0.52,1.51,1.46,2.81,2.8,3.92
		c1.34,1.11,2.83,2.11,4.46,2.99s3.27,1.68,4.91,2.4c1.63,0.72,2.98,1.44,4.02,2.16c1.31-0.72,2.42-1.32,3.34-1.82
		c0.92-0.49,1.73-0.95,2.45-1.37c0.72-0.42,1.46-0.82,2.21-1.18s1.62-0.77,2.6-1.23c0.13-0.06,0.24-0.1,0.34-0.1
		c0.1,0,0.1,0.08,0,0.25c-0.1,0.16-0.36,0.43-0.79,0.79c-0.43,0.36-1.1,0.87-2.01,1.52c-0.46,0.33-1.31,0.88-2.55,1.67
		c-1.24,0.78-2.59,1.64-4.02,2.55c0.79,0.72,1.41,1.47,1.87,2.26c0.39,0.72,0.67,1.49,0.83,2.31c0.16,0.82,0.01,1.65-0.44,2.5
		c-1.31,2.09-2.78,3.73-4.41,4.91c-1.64,1.18-3.14,1.99-4.51,2.45c-0.92,0.33-1.93,0.36-3.04,0.1c-1.11-0.26-2-0.79-2.65-1.57
		c-0.72-1.05-0.9-2.11-0.54-3.19c0.36-1.08,0.96-2.12,1.81-3.14c0.85-1.01,1.83-1.98,2.94-2.89c1.11-0.92,2.09-1.73,2.94-2.45
		c-0.59-0.65-1.73-1.46-3.43-2.4c-1.7-0.95-3.45-1.99-5.25-3.14c-1.8-1.14-3.42-2.37-4.86-3.68c-1.44-1.31-2.22-2.62-2.36-3.92
		c-0.26-1.44-0.08-2.83,0.54-4.17c0.62-1.34,1.54-2.52,2.75-3.53s2.62-1.77,4.22-2.26C60.92,43.57,62.61,43.45,64.38,43.71z
		 M63.49,77.37c0.72,0.33,1.54,0.33,2.45,0c0.92-0.33,1.78-0.8,2.6-1.42c0.82-0.62,1.54-1.31,2.16-2.06s1.03-1.42,1.23-2.01
		c0.2-0.52,0.02-1.09-0.54-1.72c-0.56-0.62-1.13-1.13-1.72-1.52c-0.72,0.52-1.54,1.19-2.45,2.01c-0.92,0.82-1.72,1.65-2.4,2.5
		c-0.69,0.85-1.19,1.67-1.52,2.45C62.97,76.39,63.03,76.98,63.49,77.37z"/>
	<path class="st0" d="M96.07,45.87c0.06,0.39-0.25,0.78-0.93,1.18c-0.69,0.39-1.55,0.97-2.6,1.72s-2.19,1.75-3.43,2.99
		s-2.36,2.88-3.34,4.91c-1.05,2.22-1.8,4.15-2.26,5.79s-0.36,3.57,0.29,5.79c0.2,0.46,0.47,0.87,0.83,1.23
		c0.36,0.36,0.9,0.57,1.62,0.64c1.44-0.26,2.71-0.62,3.83-1.08c1.11-0.46,2.16-1.01,3.14-1.67c0.98-0.65,1.93-1.36,2.84-2.11
		c0.92-0.75,1.86-1.52,2.85-2.31c1.44-1.37,2.63-2.57,3.58-3.58c0.95-1.01,1.72-1.86,2.31-2.55s1.09-1.19,1.52-1.52
		c0.42-0.33,0.87-0.42,1.32-0.29c-0.26,0.59-1,1.83-2.21,3.73c-1.21,1.9-2.78,3.91-4.71,6.03c-1.93,2.13-4.17,4.12-6.72,5.98
		c-2.55,1.86-5.3,3.03-8.24,3.48c-1.18-0.06-2.14-0.2-2.89-0.39c-0.75-0.2-1.46-0.98-2.11-2.35c-0.79-1.63-1.08-3.61-0.88-5.94
		c0.2-2.32,0.69-4.63,1.47-6.92c0.79-2.29,1.77-4.42,2.94-6.38c1.18-1.96,2.32-3.4,3.43-4.32c1.57-1.11,3.02-1.8,4.37-2.06
		C93.43,45.61,94.76,45.61,96.07,45.87z"/>
	<path class="st0" d="M111.96,46.85c0.2-0.06,0.75-0.25,1.67-0.54s1.67-0.34,2.26-0.15c1.9-0.06,3.35,0.43,4.37,1.47
		c1.01,1.05,1.09,3.08,0.25,6.08c-1.24,3.34-2.89,6.12-4.96,8.34c-2.06,2.22-4.5,4.35-7.31,6.38c0.65,1.7,1.63,2.65,2.94,2.85
		s2.68-0.02,4.12-0.64c1.44-0.62,2.85-1.46,4.22-2.5c1.37-1.05,2.49-1.96,3.34-2.75c1.37-1.18,2.47-2.17,3.29-2.99
		c0.82-0.82,1.68-1.82,2.6-2.99c0.2-0.13,0.31-0.11,0.34,0.05c0.03,0.16,0.01,0.41-0.05,0.74c-0.07,0.33-0.16,0.79-0.29,1.37
		c-0.2,0.46-0.39,0.87-0.59,1.23c-0.2,0.36-0.48,0.75-0.83,1.18c-0.36,0.43-0.83,0.93-1.42,1.52c-0.59,0.59-1.31,1.37-2.16,2.35
		c-0.98,0.92-1.93,1.82-2.85,2.7s-1.88,1.65-2.89,2.31c-1.01,0.65-2.13,1.11-3.34,1.37s-2.6,0.26-4.17,0
		c-1.31-0.46-2.36-0.95-3.14-1.47s-1.39-1.06-1.81-1.62c-0.43-0.55-0.74-1.06-0.93-1.52c-0.2-0.46-0.33-0.85-0.39-1.18
		c-0.33-1.31-0.46-3.07-0.39-5.3c0.06-2.22,0.72-5.1,1.96-8.63c0.85-1.83,1.77-3.38,2.75-4.66
		C109.51,48.57,110.65,47.57,111.96,46.85z M107.65,64.22c0.85-0.46,1.85-1.09,2.99-1.91s2.22-1.77,3.24-2.85
		c1.01-1.08,1.9-2.27,2.65-3.58s1.16-2.68,1.23-4.12c0.2-0.98,0.16-1.67-0.1-2.06c-0.13-0.2-0.26-0.29-0.39-0.29
		c-1.11-0.52-2.22-0.36-3.34,0.49c-1.11,0.85-2.13,2.06-3.04,3.63c-0.92,1.57-1.69,3.32-2.31,5.25S107.65,62.52,107.65,64.22z"/>
	<path class="st0" d="M132.27,44.69c0,1.83-0.02,3.66-0.05,5.5c-0.03,1.83-0.07,3.6-0.1,5.3c-0.03,1.7-0.07,3.3-0.1,4.81
		c-0.03,1.51-0.08,2.85-0.15,4.02c0-0.26,0.15-0.9,0.44-1.91s0.7-2.17,1.23-3.48c0.52-1.31,1.09-2.7,1.72-4.17
		c0.62-1.47,1.29-2.78,2.01-3.92c0.72-1.14,1.45-2.04,2.21-2.7c0.75-0.65,1.45-0.85,2.11-0.59c1.44,0.65,2.45,1.6,3.04,2.85
		c0.59,1.24,1.01,2.67,1.28,4.27c0.26,1.6,0.52,3.38,0.79,5.35c0.26,1.96,0.85,4.02,1.77,6.18c0.39,0.98,0.96,1.7,1.72,2.16
		c0.75,0.46,1.47,0.79,2.16,0.98c0.69,0.2,1.24,0.31,1.67,0.34c0.42,0.03,0.57,0.15,0.44,0.34c-1.64,1.24-3.04,1.67-4.22,1.28
		s-2.17-1.26-2.99-2.6s-1.49-2.94-2.01-4.81c-0.52-1.86-1-3.66-1.42-5.4c-0.43-1.73-0.8-3.2-1.13-4.42
		c-0.33-1.21-0.69-1.82-1.08-1.82c-0.59,0.07-1.23,0.62-1.91,1.67c-0.69,1.05-1.39,2.35-2.11,3.92s-1.41,3.29-2.06,5.15
		s-1.26,3.62-1.82,5.25c-0.56,1.64-1,3.04-1.32,4.22c-0.33,1.18-0.52,1.9-0.59,2.16c-0.98,0-1.59,0.03-1.82,0.1
		c-0.23,0.06-0.61-0.26-1.13-0.98c0.33-5.76,0.44-11.2,0.34-16.34c-0.1-5.13-0.25-9.6-0.44-13.39c0-0.59,0.15-0.88,0.44-0.88
		s0.62,0.13,0.98,0.39s0.74,0.52,1.13,0.79C131.68,44.56,132.01,44.69,132.27,44.69z"/>
	<path class="st1" d="M188.2,23.01c-0.2,1.18-0.43,2.42-0.69,3.73s-0.54,2.55-0.83,3.73c-0.29,1.18-0.54,2.19-0.74,3.04
		s-0.33,1.37-0.39,1.57c-0.39,1.11-0.92,2.55-1.57,4.32c-0.65,1.77-1.42,3.62-2.31,5.54c-0.88,1.93-1.88,3.86-2.99,5.79
		c-1.11,1.93-2.26,3.58-3.43,4.96c0,0.98,0.11,2.63,0.34,4.96c0.23,2.32,0.51,4.82,0.83,7.51c0.33,2.68,0.64,5.32,0.93,7.9
		s0.47,4.59,0.54,6.03c-0.33,0.33-0.62,0.26-0.88-0.2c-0.26-0.46-0.66-1.24-1.18-2.35c-0.39-1.7-0.7-3.27-0.93-4.71
		s-0.44-2.89-0.64-4.37c-0.2-1.47-0.41-3.02-0.64-4.66c-0.23-1.63-0.57-3.5-1.03-5.59c-1.24,1.57-2.73,3.35-4.46,5.35
		c-1.73,2-3.53,3.76-5.4,5.3c-1.86,1.54-3.7,2.62-5.49,3.24c-1.8,0.62-3.35,0.34-4.66-0.83c-0.79-1.05-1.13-2.27-1.03-3.68
		s0.49-2.85,1.18-4.32s1.57-2.93,2.65-4.37s2.17-2.78,3.29-4.02c1.11-1.24,2.16-2.32,3.14-3.24c0.98-0.92,1.7-1.57,2.16-1.96
		c0.92-0.59,1.68-1.06,2.31-1.42c0.62-0.36,1.18-0.65,1.67-0.88s1-0.39,1.52-0.49c0.52-0.1,1.18-0.11,1.96-0.05
		c-0.13-1.5-0.21-3.3-0.25-5.4c-0.03-2.09-0.03-4.2,0-6.33c0.03-2.12,0.1-4.1,0.2-5.94c0.1-1.83,0.25-3.24,0.44-4.22
		c0.13-1.44,0.44-2.94,0.93-4.51s1.11-3.09,1.86-4.56s1.58-2.78,2.5-3.92s1.91-1.96,2.99-2.45c1.08-0.49,2.19-0.6,3.34-0.34
		c1.14,0.26,2.27,1.08,3.38,2.45c0.92,1.11,1.37,2.5,1.37,4.17C188.2,19.43,188.2,21.18,188.2,23.01z M161.02,58.33
		c-1.77,1.83-3.06,3.52-3.88,5.05c-0.82,1.54-1.49,2.96-2.01,4.27c0,0.2,0,0.51,0,0.93c0,0.43,0.05,0.83,0.15,1.23
		c0.1,0.39,0.29,0.74,0.59,1.03c0.29,0.29,0.77,0.38,1.42,0.25c0.65-0.26,1.19-0.52,1.62-0.79c0.42-0.26,0.82-0.54,1.18-0.83
		c0.36-0.29,0.75-0.6,1.18-0.93c0.42-0.33,0.96-0.75,1.62-1.28c0.92-0.98,2.04-2.09,3.38-3.34c1.34-1.24,2.52-2.55,3.53-3.92
		c1.01-1.37,1.68-2.78,2.01-4.22s-0.1-2.85-1.28-4.22c-0.46,0-0.93,0.07-1.42,0.2s-1.1,0.44-1.82,0.93
		c-0.72,0.49-1.59,1.18-2.6,2.06C163.69,55.63,162.46,56.83,161.02,58.33z M175.25,49.21c1.18-1.31,2.16-2.7,2.94-4.17
		c0.79-1.47,1.67-3.22,2.65-5.25c0.85-1.77,1.62-4.02,2.31-6.77s1.16-5.45,1.42-8.09c0.26-2.65,0.26-4.95,0-6.92
		c-0.26-1.96-0.92-3.01-1.96-3.14c-0.92-0.13-1.77,0.21-2.55,1.03c-0.79,0.82-1.5,1.83-2.16,3.04c-0.66,1.21-1.21,2.5-1.67,3.88
		c-0.46,1.37-0.79,2.58-0.98,3.63c-0.26,1.31-0.44,2.49-0.54,3.53c-0.1,1.05-0.16,2.14-0.2,3.29c-0.03,1.15-0.08,2.39-0.15,3.73
		s-0.2,2.99-0.39,4.96c0,0.98,0.05,1.96,0.15,2.94c0.1,0.98,0.23,1.82,0.39,2.5c0.16,0.69,0.31,1.21,0.44,1.57
		C175.09,49.32,175.18,49.4,175.25,49.21z"/>
	<path class="st1" d="M203.51,45.77c-0.07,0.39-0.21,1.21-0.44,2.45c-0.23,1.24-0.48,2.7-0.74,4.37c-0.26,1.67-0.49,3.42-0.69,5.25
		s-0.31,3.57-0.34,5.2c-0.03,1.64,0.06,3.03,0.29,4.17c0.23,1.15,0.6,1.85,1.13,2.11c1.5,0.72,3.04,0.48,4.61-0.74
		c1.57-1.21,3.4-3.06,5.49-5.54c0.2,0,0.21,0.26,0.05,0.79c-0.16,0.52-0.43,1.1-0.79,1.72s-0.72,1.24-1.08,1.86
		c-0.36,0.62-0.64,1.03-0.83,1.23c-0.52,0.65-1.28,1.39-2.26,2.21c-0.98,0.82-2.03,1.47-3.14,1.96s-2.17,0.7-3.19,0.64
		c-1.01-0.06-1.85-0.65-2.5-1.77c-0.33-0.79-0.52-1.75-0.59-2.89s-0.07-2.31,0-3.48c0.06-1.18,0.16-2.26,0.29-3.24
		c0.13-0.98,0.23-1.7,0.3-2.16c-1.37,2.55-2.94,4.97-4.71,7.26s-3.5,4.09-5.2,5.4s-3.27,2.01-4.71,2.11
		c-1.44,0.1-2.55-0.74-3.34-2.5c-0.46-1.7-0.46-3.61,0-5.74c0.46-2.12,1.15-4.04,2.06-5.74c1.37-2.35,2.81-4.51,4.32-6.48
		c1.5-1.96,3.11-3.63,4.81-5s3.48-2.37,5.35-2.99C199.54,45.59,201.48,45.45,203.51,45.77z M185.06,70.7
		c0.65,0.13,1.7-0.36,3.14-1.47c1.44-1.11,2.94-2.66,4.51-4.66c1.57-1.99,2.99-4.32,4.27-6.97s2.11-5.45,2.5-8.39
		c-0.26,0-0.64,0-1.13,0s-1.06,0.2-1.72,0.59c-2.49,1.64-4.61,3.55-6.38,5.74s-3.14,4.32-4.12,6.38s-1.57,3.91-1.77,5.54
		C184.18,69.09,184.41,70.17,185.06,70.7z"/>
	<path class="st1" d="M215.77,44.69c0,1.83-0.02,3.66-0.05,5.5c-0.03,1.83-0.07,3.6-0.1,5.3c-0.03,1.7-0.07,3.3-0.1,4.81
		c-0.03,1.51-0.08,2.85-0.15,4.02c0-0.26,0.15-0.9,0.44-1.91s0.7-2.17,1.23-3.48c0.52-1.31,1.09-2.7,1.72-4.17
		c0.62-1.47,1.29-2.78,2.01-3.92c0.72-1.14,1.45-2.04,2.21-2.7c0.75-0.65,1.46-0.85,2.11-0.59c1.44,0.65,2.45,1.6,3.04,2.85
		c0.59,1.24,1.01,2.67,1.28,4.27c0.26,1.6,0.52,3.38,0.79,5.35c0.26,1.96,0.85,4.02,1.77,6.18c0.39,0.98,0.96,1.7,1.72,2.16
		c0.75,0.46,1.47,0.79,2.16,0.98c0.69,0.2,1.24,0.31,1.67,0.34c0.42,0.03,0.57,0.15,0.44,0.34c-1.64,1.24-3.04,1.67-4.22,1.28
		s-2.17-1.26-2.99-2.6s-1.49-2.94-2.01-4.81c-0.52-1.86-1-3.66-1.42-5.4c-0.43-1.73-0.8-3.2-1.13-4.42
		c-0.33-1.21-0.69-1.82-1.08-1.82c-0.59,0.07-1.23,0.62-1.91,1.67c-0.69,1.05-1.39,2.35-2.11,3.92s-1.41,3.29-2.06,5.15
		s-1.26,3.62-1.82,5.25c-0.56,1.64-1,3.04-1.32,4.22c-0.33,1.18-0.52,1.9-0.59,2.16c-0.98,0-1.59,0.03-1.82,0.1
		c-0.23,0.06-0.61-0.26-1.13-0.98c0.33-5.76,0.44-11.2,0.34-16.34c-0.1-5.13-0.25-9.6-0.44-13.39c0-0.59,0.15-0.88,0.44-0.88
		s0.62,0.13,0.98,0.39s0.74,0.52,1.13,0.79C215.18,44.56,215.51,44.69,215.77,44.69z"/>
	<path class="st1" d="M253.45,45.87c0.06,0.39-0.25,0.78-0.93,1.18c-0.69,0.39-1.55,0.97-2.6,1.72s-2.19,1.75-3.43,2.99
		s-2.36,2.88-3.34,4.91c-1.05,2.22-1.8,4.15-2.26,5.79s-0.36,3.57,0.29,5.79c0.2,0.46,0.47,0.87,0.83,1.23
		c0.36,0.36,0.9,0.57,1.62,0.64c1.44-0.26,2.71-0.62,3.83-1.08c1.11-0.46,2.16-1.01,3.14-1.67c0.98-0.65,1.93-1.36,2.84-2.11
		c0.92-0.75,1.86-1.52,2.85-2.31c1.44-1.37,2.63-2.57,3.58-3.58c0.95-1.01,1.72-1.86,2.31-2.55s1.09-1.19,1.52-1.52
		c0.42-0.33,0.87-0.42,1.32-0.29c-0.26,0.59-1,1.83-2.21,3.73c-1.21,1.9-2.78,3.91-4.71,6.03c-1.93,2.13-4.17,4.12-6.72,5.98
		c-2.55,1.86-5.3,3.03-8.24,3.48c-1.18-0.06-2.14-0.2-2.89-0.39c-0.75-0.2-1.46-0.98-2.11-2.35c-0.79-1.63-1.08-3.61-0.88-5.94
		c0.2-2.32,0.69-4.63,1.47-6.92c0.79-2.29,1.77-4.42,2.94-6.38c1.18-1.96,2.32-3.4,3.43-4.32c1.57-1.11,3.02-1.8,4.37-2.06
		C250.82,45.61,252.14,45.61,253.45,45.87z"/>
	<path class="st1" d="M269.34,46.85c0.2-0.06,0.75-0.25,1.67-0.54c0.91-0.29,1.67-0.34,2.26-0.15c1.9-0.06,3.35,0.43,4.37,1.47
		c1.01,1.05,1.09,3.08,0.25,6.08c-1.24,3.34-2.89,6.12-4.96,8.34c-2.06,2.22-4.5,4.35-7.31,6.38c0.65,1.7,1.63,2.65,2.94,2.85
		s2.68-0.02,4.12-0.64c1.44-0.62,2.85-1.46,4.22-2.5c1.37-1.05,2.49-1.96,3.34-2.75c1.37-1.18,2.47-2.17,3.29-2.99
		c0.82-0.82,1.68-1.82,2.6-2.99c0.2-0.13,0.31-0.11,0.34,0.05c0.03,0.16,0.01,0.41-0.05,0.74c-0.07,0.33-0.16,0.79-0.29,1.37
		c-0.2,0.46-0.39,0.87-0.59,1.23c-0.2,0.36-0.48,0.75-0.83,1.18c-0.36,0.43-0.83,0.93-1.42,1.52c-0.59,0.59-1.31,1.37-2.16,2.35
		c-0.98,0.92-1.93,1.82-2.85,2.7s-1.88,1.65-2.89,2.31c-1.01,0.65-2.13,1.11-3.34,1.37s-2.6,0.26-4.17,0
		c-1.31-0.46-2.36-0.95-3.14-1.47s-1.39-1.06-1.81-1.62c-0.43-0.55-0.74-1.06-0.93-1.52c-0.2-0.46-0.33-0.85-0.39-1.18
		c-0.33-1.31-0.46-3.07-0.39-5.3c0.06-2.22,0.72-5.1,1.96-8.63c0.85-1.83,1.77-3.38,2.75-4.66
		C266.89,48.57,268.04,47.57,269.34,46.85z M265.03,64.22c0.85-0.46,1.85-1.09,2.99-1.91s2.22-1.77,3.24-2.85
		c1.01-1.08,1.9-2.27,2.65-3.58s1.16-2.68,1.23-4.12c0.2-0.98,0.16-1.67-0.1-2.06c-0.13-0.2-0.26-0.29-0.39-0.29
		c-1.11-0.52-2.22-0.36-3.34,0.49c-1.11,0.85-2.13,2.06-3.04,3.63c-0.92,1.57-1.69,3.32-2.31,5.25S265.03,62.52,265.03,64.22z"/>
</g>
<g>
	<path class="st0" d="M17.84,99.27c0.82,0.5,2.02,0.92,3.28,0.92c1.87,0,2.96-0.99,2.96-2.42c0-1.32-0.76-2.08-2.67-2.81
		c-2.31-0.82-3.74-2.02-3.74-4.01c0-2.2,1.83-3.84,4.58-3.84c1.45,0,2.5,0.34,3.13,0.69l-0.5,1.49c-0.46-0.25-1.41-0.67-2.69-0.67
		c-1.93,0-2.67,1.16-2.67,2.12c0,1.32,0.86,1.97,2.81,2.73c2.39,0.92,3.61,2.08,3.61,4.16c0,2.18-1.62,4.07-4.95,4.07
		c-1.36,0-2.86-0.4-3.61-0.9L17.84,99.27z"/>
	<path class="st0" d="M67.7,88.9h-4.3v-1.55h10.48v1.55h-4.33v12.6H67.7L67.7,88.9L67.7,88.9z"/>
	<path class="st0" d="M113.83,87.35v8.38c0,3.17,1.41,4.51,3.3,4.51c2.1,0,3.44-1.39,3.44-4.51v-8.38h1.85v8.25
		c0,4.35-2.29,6.13-5.35,6.13c-2.9,0-5.08-1.66-5.08-6.05v-8.33L113.83,87.35L113.83,87.35z"/>
	<path class="st0" d="M162.16,87.54c1.11-0.17,2.44-0.29,3.88-0.29c2.62,0,4.49,0.61,5.73,1.76c1.26,1.15,1.99,2.79,1.99,5.08
		c0,2.31-0.71,4.2-2.04,5.5c-1.32,1.32-3.51,2.04-6.26,2.04c-1.3,0-2.39-0.06-3.32-0.17V87.54H162.16z M163.98,100.05
		c0.46,0.08,1.13,0.11,1.85,0.11c3.9,0,6.03-2.18,6.03-6c0.02-3.34-1.87-5.46-5.73-5.46c-0.94,0-1.66,0.08-2.14,0.19v11.16H163.98z"
		/>
	<path class="st0" d="M214.53,87.35v14.15h-1.83V87.35H214.53z"/>
	<path class="st0" d="M266.38,94.28c0,4.87-2.96,7.45-6.57,7.45c-3.74,0-6.36-2.9-6.36-7.18c0-4.49,2.79-7.43,6.57-7.43
		C263.88,87.12,266.38,90.08,266.38,94.28z M255.39,94.51c0,3.02,1.64,5.73,4.51,5.73c2.9,0,4.54-2.67,4.54-5.88
		c0-2.81-1.47-5.75-4.51-5.75C256.91,88.61,255.39,91.4,255.39,94.51z"/>
</g>
</svg>
