<svg id="_4e463a22-6ddb-479b-a6e5-bedc922df74f" data-name="4e463a22-6ddb-479b-a6e5-bedc922df74f" xmlns="http://www.w3.org/2000/svg" viewBox="0 0 1097.11 781.08"><defs><style>.cls-1,.cls-4{fill:#ea3ba1;}.cls-1,.cls-10,.cls-2{opacity:0.1;}.cls-1,.cls-10,.cls-2,.cls-7{isolation:isolate;}.cls-3{fill:#575a89;}.cls-5{fill:#444053;}.cls-6{fill:#f6f8fb;}.cls-7{opacity:0.05;}.cls-10,.cls-8{fill:#fbbebe;}.cls-9{fill:#2f2e41;}</style></defs><path class="cls-1" d="M11.84,389C29.21,456.15,66,514.18,124,542.31c120.7,58.46,392.91,28.31,596.07-6.3,105.09-17.9,197.46-67.3,264.56-136.82Z" transform="translate(0.01 0)"/><path class="cls-1" d="M1077.2,73H965.73c-5.29,0-9.63-3.92-9.63-8.71s4.34-8.72,9.63-8.72H985c-5.3,0-9.63-3.92-9.63-8.72s4.33-8.71,9.63-8.71H971.25c-5.3,0-9.64-3.92-9.64-8.72s4.34-8.71,9.64-8.71h58.18c-12.91-5.43-28-9.29-45.39-11.32C825.39-9,768.75,3.18,748.77,15.71a234.64,234.64,0,0,1-81.54,32.34c-97.88,18.27-280.93,40.25-446.84-7C137.93,17.52,76.64,57.23,39.91,123.61H1096.56c-1.38-19.29-5.51-37.11-13.09-52.7A10.16,10.16,0,0,1,1077.2,73Z" transform="translate(0.01 0)"/><path class="cls-1" d="M2.39,248.9A402.45,402.45,0,0,0,6.71,366l978.68,32.39a415.14,415.14,0,0,0,68-93.82Zm387.08,83.55H370.2c5.3,0,9.64,3.93,9.64,8.72s-4.34,8.71-9.64,8.71H258.73c-5.29,0-9.63-3.92-9.63-8.71s4.34-8.72,9.63-8.72H278c-5.3,0-9.63-3.92-9.63-8.71S272.71,315,278,315H264.24c-5.3,0-9.64-3.92-9.64-8.71s4.34-8.72,9.64-8.72H375.71c5.3,0,9.63,3.92,9.63,8.72S381,315,375.71,315h13.76c5.3,0,9.63,3.92,9.63,8.72S394.77,332.45,389.47,332.45Z" transform="translate(0.01 0)"/><path class="cls-1" d="M1096.6,124.21,28.12,147.71c-13,30.23-21.62,64.41-25.59,99.83H1077.88a379.11,379.11,0,0,0,15.52-63.63C1096.61,163.1,1097.89,143,1096.6,124.21ZM219.47,201.26H200.2c5.3,0,9.64,3.93,9.64,8.72s-4.34,8.72-9.64,8.72H88.73c-5.29,0-9.63-3.93-9.63-8.72s4.34-8.72,9.63-8.72H108c-5.3,0-9.63-3.92-9.63-8.71s4.33-8.72,9.63-8.72H94.24c-5.3,0-9.64-3.92-9.64-8.71s4.34-8.72,9.64-8.72H205.71c5.3,0,9.63,3.92,9.63,8.72s-4.33,8.71-9.63,8.71h13.76c5.3,0,9.63,3.93,9.63,8.72S224.77,201.26,219.47,201.26Z" transform="translate(0.01 0)"/><ellipse class="cls-1" cx="545.09" cy="739.96" rx="446.98" ry="41.12"/><path class="cls-2" d="M854.7,758c-2.91.11-19.45,0-19.45,0a8.7,8.7,0,0,1-.68-.8C838.8,755.71,847.94,753.55,854.7,758Z" transform="translate(0.01 0)"/><path class="cls-2" d="M902,758c-2.91.11-19.45,0-19.45,0a8.7,8.7,0,0,1-.68-.8C886.09,755.71,895.23,753.55,902,758Z" transform="translate(0.01 0)"/><ellipse class="cls-3" cx="812.36" cy="423.74" rx="9" ry="6.1"/><circle class="cls-4" cx="519" cy="454.79" r="308.5"/><path class="cls-5" d="M680.86,609.82c0,48.7-76.56,4.16-158.64,4.16s-165.1,42.7-165.1-6c0-27.77,26.46-66.39,64.42-94.44h0c28.6-21.14,63.72-36.28,99-36.28,36.28,0,71.82,16.39,100.17,38.89C656.49,544.52,680.86,582.64,680.86,609.82Z" transform="translate(0.01 0)"/><path class="cls-6" d="M620.7,516.13c-43.63-6.57-122.54-14.58-199.16-2.61,28.6-21.14,63.72-36.28,99-36.28C556.81,477.24,592.35,493.63,620.7,516.13Z" transform="translate(0.01 0)"/><path class="cls-7" d="M357.12,237S264.19,296.43,265,389.36,357.12,237,357.12,237Z" transform="translate(0.01 0)"/><path class="cls-5" d="M409.31,414.34c5.87-.33,33.5-2.41,51.05-12.42a19.82,19.82,0,0,1,9.27-2.73c5.58-.16,12,2.17,7.89,15.21-6.66,21.33-45.33,45.33-69.33,44-23.08-1.28-50.46-10.58-68.54-43.28a20,20,0,0,1-2.47-10.29c.21-6.6,2.61-14.87,15-5.65,16.74,12.45,48.5,14.81,54.87,15.16A21.3,21.3,0,0,0,409.31,414.34Z" transform="translate(0.01 0)"/><path class="cls-5" d="M631.31,414.34c5.87-.33,33.5-2.41,51.05-12.42a19.82,19.82,0,0,1,9.27-2.73c5.58-.16,12,2.17,7.89,15.21-6.66,21.33-45.33,45.33-69.33,44-23.08-1.28-50.46-10.58-68.54-43.28a20,20,0,0,1-2.47-10.29c.21-6.6,2.61-14.87,15-5.65,16.74,12.45,48.5,14.81,54.87,15.16A21.3,21.3,0,0,0,631.31,414.34Z" transform="translate(0.01 0)"/><path class="cls-8" d="M851.19,319.94s-3.85-51.74-2-61.21,3.51-36.4-6.44-27.54-6.41,28.94-6.41,28.94-9.44,54.69-.71,62.1S851.19,319.94,851.19,319.94Z" transform="translate(0.01 0)"/><path class="cls-4" d="M858.35,371.1s-29.61-26.4-28-48.8c0,0,17.61-13.6,21.61-6.4s33.08,35.29,28.14,44.85S858.35,371.1,858.35,371.1Z" transform="translate(0.01 0)"/><path class="cls-8" d="M963.16,323.9s17.6-48.81,18.4-58.41,6.4-36,13.6-24.8-1.6,29.6-1.6,29.6-5.6,55.21-16,60S963.16,323.9,963.16,323.9Z" transform="translate(0.01 0)"/><path class="cls-8" d="M915.16,568.73h47.2l2.4,24-11.2,2.4s-26.4-8-41.61-5.6S915.16,568.73,915.16,568.73Z" transform="translate(0.01 0)"/><path class="cls-9" d="M946.36,565.53s22.4-15.2,26.4-2.4,18.4,59.21,13.6,64-10.4-4-10.4-4-9.6-20-16.8-20.81-11.2-7.2-11.2-7.2S968.76,579.13,946.36,565.53Z" transform="translate(0.01 0)"/><path class="cls-8" d="M903.15,689.54s8.8,36,7.2,41.61,25.61,2.4,25.61,2.4l1.6-10.4s-16-25.61-16-36.81S903.15,689.54,903.15,689.54Z" transform="translate(0.01 0)"/><path class="cls-9" d="M936,716s21.6,16,10.4,24-52.81,28.8-52.81,28.8-15.2,2.4-4-11.2,14.4-16,15.2-23.2a35.2,35.2,0,0,1,4.94-13.51S920.76,743.15,936,716Z" transform="translate(0.01 0)"/><path class="cls-9" d="M870.35,523.92s-8.8,83.21,4.8,109.62,29.6,62.4,28.8,64,23.21-2.4,23.21-9.6-26.41-79.21-26.41-79.21,11.2-93.61,20-100S870.35,523.92,870.35,523.92Z" transform="translate(0.01 0)"/><path class="cls-2" d="M870.35,523.92s-8.8,83.21,4.8,109.62,29.6,62.4,28.8,64,23.21-2.4,23.21-9.6-26.41-79.21-26.41-79.21,11.2-93.61,20-100S870.35,523.92,870.35,523.92Z" transform="translate(0.01 0)"/><path class="cls-9" d="M888.43,289.1c-5.72,1-11.38,4.17-14.23,9.54-2.65,5-2.82,11.69-7,15.29-2.52,2.15-5.94,2.64-8.75,4.33a13.45,13.45,0,0,0-6.2,12c.22,4.42,2.55,8.53,2.5,12.95-.06,5.75-4,10.49-7.77,14.65l12.39,2.3a12.37,12.37,0,0,0,5.74.16c2.14-.64,3.88-2.4,6-2.94,3.1-.77,6.17,1.12,8.94,2.79,7.89,4.77,16.34,8.37,24.76,11.95,2.48,1.06,5.29,2.11,7.73,1,2-.91,3.2-3.06,5.06-4.22,3.32-2.08,7.5-.52,11.24.51a37.16,37.16,0,0,0,25.38-2.16c-1.71-2-4-3.4-5.8-5.26s-3.34-4.5-2.85-7.15,2.82-4.51,4.41-6.69a15.78,15.78,0,0,0,2.39-11.93,21.7,21.7,0,0,0-5.71-10.8,58.65,58.65,0,0,1-4.67-4.92c-2.91-3.94-3.63-9.15-4.57-14.06s-2.4-10.14-6.19-13.13c-6-4.76-15.83-3.14-22.88-3.61C901.62,289.22,895.14,289.1,888.43,289.1Z" transform="translate(0.01 0)"/><path class="cls-9" d="M848.75,467.12l15.2,37.6s-69.61,76-30.4,86.41,52.8-8,77.6,6.4c0,0,12-18.4,10.41-29.6,0,0-34.41-6.4-52.81-5.6,0,0,49.61-43.21,54.41-44.81s20.8-27.2-4-48-18.41-32-18.41-32Z" transform="translate(0.01 0)"/><path class="cls-8" d="M884.75,336.7s2.4,24.8-8,28,40.81,2.4,40.81,2.4-12-7.2-6.41-22.4S884.75,336.7,884.75,336.7Z" transform="translate(0.01 0)"/><path class="cls-10" d="M897.91,339.11s2.4,24.8-8,28,40.8,2.4,40.8,2.4-12-7.2-6.4-22.4S897.91,339.11,897.91,339.11Z" transform="translate(0.01 0)"/><path class="cls-4" d="M939.16,379.91s-4.8-24.81-14.4-23.21-28.81,3.2-31.21,4.8-15.2,4.88-15.2,4.88,4.8-5.68,0-6.48-20,3.2-21.6,6.4-8,9.61-8,20.81-4.8,30.4-3.2,38.4-.8,26.4-5.6,36.81-.8,20.8,7.2,10.4,4,0,10.4.8,35.2-28.81,43.2-21.61,16,12,17.61,8S912,448.71,912,445.51s-12.8,10.41.8-17.6S913.55,391.91,939.16,379.91Z" transform="translate(0.01 0)"/><path class="cls-4" d="M932.76,378.31l6.4,1.6s23.2-16.81,29.6-28.81S980,329.5,980,329.5s-10.4-12.8-16.8-8S928,359.1,928,359.1Z" transform="translate(0.01 0)"/><circle class="cls-8" cx="903.15" cy="328.7" r="24.8" transform="translate(434.04 1167.54) rotate(-80.78)"/><path class="cls-9" d="M881.21,321.51a21.83,21.83,0,0,1,15.15-5c9.51.59,17.88,7.36,27.4,7.57a9.86,9.86,0,0,1,.82-6.07c.74-1.51,1.9-3,1.75-4.65a5.67,5.67,0,0,0-2.06-3.37c-5.5-5.22-13.11-7.91-20.69-8.24-5.08-.22-14.78-.1-18.72,3.75C881.49,308.81,881.88,317.25,881.21,321.51Z" transform="translate(0.01 0)"/></svg>